<svg width="32" height="33" viewBox="0 0 32 33" fill="none" xmlns="http://www.w3.org/2000/svg">
<rect y="0.5" width="32" height="32" rx="16" fill="#F85B18"/>
<path d="M16 9.8335C12.3267 9.8335 9.33333 12.8268 9.33333 16.5002C9.33333 20.1735 12.3267 23.1668 16 23.1668C19.6733 23.1668 22.6667 20.1735 22.6667 16.5002C22.6667 12.8268 19.6733 9.8335 16 9.8335ZM18.9 18.8802C18.8067 19.0402 18.64 19.1268 18.4667 19.1268C18.38 19.1268 18.2933 19.1068 18.2133 19.0535L16.1467 17.8202C15.6333 17.5135 15.2533 16.8402 15.2533 16.2468V13.5135C15.2533 13.2402 15.48 13.0135 15.7533 13.0135C16.0267 13.0135 16.2533 13.2402 16.2533 13.5135V16.2468C16.2533 16.4868 16.4533 16.8402 16.66 16.9602L18.7267 18.1935C18.9667 18.3335 19.0467 18.6402 18.9 18.8802Z" fill="white"/>
</svg>
