<svg width="32" height="33" viewBox="0 0 32 33" fill="none" xmlns="http://www.w3.org/2000/svg">
<rect y="0.5" width="32" height="32" rx="16" fill="#F85B18"/>
<path d="M22.6467 20.7202C22.6467 20.9602 22.5933 21.2068 22.48 21.4468C22.3667 21.6868 22.22 21.9135 22.0267 22.1268C21.7 22.4868 21.34 22.7468 20.9333 22.9135C20.5333 23.0802 20.1 23.1668 19.6333 23.1668C18.9533 23.1668 18.2267 23.0068 17.46 22.6802C16.6933 22.3535 15.9267 21.9135 15.1667 21.3602C14.4 20.8002 13.6733 20.1802 12.98 19.4935C12.2933 18.8002 11.6733 18.0735 11.12 17.3135C10.5733 16.5535 10.1333 15.7935 9.81333 15.0402C9.49333 14.2802 9.33333 13.5535 9.33333 12.8602C9.33333 12.4068 9.41333 11.9735 9.57333 11.5735C9.73333 11.1668 9.98666 10.7935 10.34 10.4602C10.7667 10.0402 11.2333 9.8335 11.7267 9.8335C11.9133 9.8335 12.1 9.8735 12.2667 9.9535C12.44 10.0335 12.5933 10.1535 12.7133 10.3268L14.26 12.5068C14.38 12.6735 14.4667 12.8268 14.5267 12.9735C14.5867 13.1135 14.62 13.2535 14.62 13.3802C14.62 13.5402 14.5733 13.7002 14.48 13.8535C14.3933 14.0068 14.2667 14.1668 14.1067 14.3268L13.6 14.8535C13.5267 14.9268 13.4933 15.0135 13.4933 15.1202C13.4933 15.1735 13.5 15.2202 13.5133 15.2735C13.5333 15.3268 13.5533 15.3668 13.5667 15.4068C13.6867 15.6268 13.8933 15.9135 14.1867 16.2602C14.4867 16.6068 14.8067 16.9602 15.1533 17.3135C15.5133 17.6668 15.86 17.9935 16.2133 18.2935C16.56 18.5868 16.8467 18.7868 17.0733 18.9068C17.1067 18.9202 17.1467 18.9402 17.1933 18.9602C17.2467 18.9802 17.3 18.9868 17.36 18.9868C17.4733 18.9868 17.56 18.9468 17.6333 18.8735L18.14 18.3735C18.3067 18.2068 18.4667 18.0802 18.62 18.0002C18.7733 17.9068 18.9267 17.8602 19.0933 17.8602C19.22 17.8602 19.3533 17.8868 19.5 17.9468C19.6467 18.0068 19.8 18.0935 19.9667 18.2068L22.1733 19.7735C22.3467 19.8935 22.4667 20.0335 22.54 20.2002C22.6067 20.3668 22.6467 20.5335 22.6467 20.7202Z" fill="white"/>
</svg>
