<svg width="32" height="33" viewBox="0 0 32 33" fill="none" xmlns="http://www.w3.org/2000/svg">
<rect y="0.5" width="32" height="32" rx="16" fill="#F85B18"/>
<g clip-path="url(#clip0_63_3546)">
<path d="M21.7467 14.1332C21.0467 11.0532 18.36 9.6665 16 9.6665C16 9.6665 16 9.6665 15.9933 9.6665C13.64 9.6665 10.9467 11.0465 10.2467 14.1265C9.46667 17.5665 11.5733 20.4798 13.48 22.3132C14.1867 22.9932 15.0933 23.3332 16 23.3332C16.9067 23.3332 17.8133 22.9932 18.5133 22.3132C20.42 20.4798 22.5267 17.5732 21.7467 14.1332ZM16 17.4732C14.84 17.4732 13.9 16.5332 13.9 15.3732C13.9 14.2132 14.84 13.2732 16 13.2732C17.16 13.2732 18.1 14.2132 18.1 15.3732C18.1 16.5332 17.16 17.4732 16 17.4732Z" fill="white"/>
</g>
<defs>
<clipPath id="clip0_63_3546">
<rect width="16" height="16" fill="white" transform="translate(8 8.5)"/>
</clipPath>
</defs>
</svg>
