<svg width="62" height="62" viewBox="0 0 62 62" fill="none" xmlns="http://www.w3.org/2000/svg">
<path d="M18.5 21C18.5 19.067 20.067 17.5 22 17.5H51C51.2761 17.5 51.5 17.7239 51.5 18V24C51.5 24.2761 51.2761 24.5 51 24.5H22C20.067 24.5 18.5 22.933 18.5 21Z" fill="#F9F9FA" stroke="#C5C6CA"/>
<mask id="path-2-inside-1_1246_1319" fill="white">
<path fill-rule="evenodd" clip-rule="evenodd" d="M32.7059 9.07843C32.7059 7.42158 31.3627 6.07843 29.7059 6.07843H14C12.3431 6.07843 11 7.42158 11 9.07843V52.9216C11 54.5784 12.3431 55.9216 14 55.9216H29.7059C31.3627 55.9216 32.7059 54.5784 32.7059 52.9216V30.7843C32.7059 29.1275 31.3627 27.7843 29.7059 27.7843H21.853C18.0791 27.7843 15.0197 24.7249 15.0197 20.951C15.0197 17.1771 18.0791 14.1177 21.853 14.1177H29.7059C31.3627 14.1177 32.7059 12.7745 32.7059 11.1177V9.07843Z"/>
</mask>
<path fill-rule="evenodd" clip-rule="evenodd" d="M32.7059 9.07843C32.7059 7.42158 31.3627 6.07843 29.7059 6.07843H14C12.3431 6.07843 11 7.42158 11 9.07843V52.9216C11 54.5784 12.3431 55.9216 14 55.9216H29.7059C31.3627 55.9216 32.7059 54.5784 32.7059 52.9216V30.7843C32.7059 29.1275 31.3627 27.7843 29.7059 27.7843H21.853C18.0791 27.7843 15.0197 24.7249 15.0197 20.951C15.0197 17.1771 18.0791 14.1177 21.853 14.1177H29.7059C31.3627 14.1177 32.7059 12.7745 32.7059 11.1177V9.07843Z" fill="#F9F9FA"/>
<path d="M14 7.07843H29.7059V5.07843H14V7.07843ZM12 52.9216V9.07843H10V52.9216H12ZM29.7059 54.9216H14V56.9216H29.7059V54.9216ZM31.7059 30.7843V52.9216H33.7059V30.7843H31.7059ZM29.7059 26.7843H21.853V28.7843H29.7059V26.7843ZM21.853 26.7843C18.6314 26.7843 16.0197 24.1727 16.0197 20.951H14.0197C14.0197 25.2772 17.5268 28.7843 21.853 28.7843V26.7843ZM16.0197 20.951C16.0197 17.7293 18.6314 15.1177 21.853 15.1177V13.1177C17.5268 13.1177 14.0197 16.6248 14.0197 20.951H16.0197ZM21.853 15.1177H29.7059V13.1177H21.853V15.1177ZM31.7059 9.07843V11.1177H33.7059V9.07843H31.7059ZM29.7059 15.1177C31.915 15.1177 33.7059 13.3268 33.7059 11.1177H31.7059C31.7059 12.2222 30.8105 13.1177 29.7059 13.1177V15.1177ZM33.7059 30.7843C33.7059 28.5752 31.915 26.7843 29.7059 26.7843V28.7843C30.8105 28.7843 31.7059 29.6798 31.7059 30.7843H33.7059ZM29.7059 56.9216C31.915 56.9216 33.7059 55.1307 33.7059 52.9216H31.7059C31.7059 54.0261 30.8105 54.9216 29.7059 54.9216V56.9216ZM10 52.9216C10 55.1307 11.7909 56.9216 14 56.9216V54.9216C12.8954 54.9216 12 54.0261 12 52.9216H10ZM29.7059 7.07843C30.8105 7.07843 31.7059 7.97386 31.7059 9.07843H33.7059C33.7059 6.86929 31.915 5.07843 29.7059 5.07843V7.07843ZM14 5.07843C11.7909 5.07843 10 6.86929 10 9.07843H12C12 7.97386 12.8954 7.07843 14 7.07843V5.07843Z" fill="#C5C6CA" mask="url(#path-2-inside-1_1246_1319)"/>
<path d="M22.5 43.5C21.9477 43.5 21.5 43.0523 21.5 42.5L21.5 37.7C21.5 37.5895 21.5895 37.5 21.7 37.5L23.3 37.5C23.4105 37.5 23.5 37.5895 23.5 37.7L23.5 42.5C23.5 43.0523 23.0523 43.5 22.5 43.5Z" stroke="#C5C6CA"/>
</svg>
