<svg width="62" height="62" viewBox="0 0 62 62" fill="none" xmlns="http://www.w3.org/2000/svg">
<mask id="path-1-inside-1_1246_818" fill="white">
<path fill-rule="evenodd" clip-rule="evenodd" d="M38.7244 22.9799H23.2174C19.034 22.9799 15.6428 26.3711 15.6428 30.5544C15.6428 34.7378 19.034 38.129 23.2174 38.129H39.1689C36.4731 43.9568 30.5744 48 23.7314 48C14.3426 48 6.73145 40.3888 6.73145 31C6.73145 21.6112 14.3426 14.0001 23.7314 14.0001C30.2199 14.0001 35.8593 17.6351 38.7244 22.9799Z"/>
</mask>
<path fill-rule="evenodd" clip-rule="evenodd" d="M38.7244 22.9799H23.2174C19.034 22.9799 15.6428 26.3711 15.6428 30.5544C15.6428 34.7378 19.034 38.129 23.2174 38.129H39.1689C36.4731 43.9568 30.5744 48 23.7314 48C14.3426 48 6.73145 40.3888 6.73145 31C6.73145 21.6112 14.3426 14.0001 23.7314 14.0001C30.2199 14.0001 35.8593 17.6351 38.7244 22.9799Z" fill="#F9F9FA"/>
<path d="M38.7244 22.9799V23.9799H40.395L39.6057 22.5074L38.7244 22.9799ZM39.1689 38.129L40.0765 38.5489L40.7332 37.129H39.1689V38.129ZM23.2174 23.9799H38.7244V21.9799H23.2174V23.9799ZM16.6428 30.5544C16.6428 26.9234 19.5863 23.9799 23.2174 23.9799V21.9799C18.4818 21.9799 14.6428 25.8188 14.6428 30.5544H16.6428ZM23.2174 37.129C19.5863 37.129 16.6428 34.1855 16.6428 30.5544H14.6428C14.6428 35.2901 18.4818 39.129 23.2174 39.129V37.129ZM39.1689 37.129H23.2174V39.129H39.1689V37.129ZM38.2613 37.7092C35.723 43.1964 30.1704 47 23.7314 47V49C30.9785 49 37.2232 44.7172 40.0765 38.5489L38.2613 37.7092ZM23.7314 47C14.8949 47 7.73145 39.8366 7.73145 31H5.73145C5.73145 40.9411 13.7903 49 23.7314 49V47ZM7.73145 31C7.73145 22.1635 14.8949 15.0001 23.7314 15.0001V13.0001C13.7903 13.0001 5.73145 21.0589 5.73145 31H7.73145ZM23.7314 15.0001C29.8368 15.0001 35.1451 18.4194 37.843 23.4523L39.6057 22.5074C36.5735 16.8508 30.6029 13.0001 23.7314 13.0001V15.0001Z" fill="#C5C6CA" mask="url(#path-1-inside-1_1246_818)"/>
<path d="M19.5 30.5C19.5 28.8431 20.8431 27.5 22.5 27.5H53C53.2761 27.5 53.5 27.7239 53.5 28V33C53.5 33.2761 53.2761 33.5 53 33.5H22.5C20.8431 33.5 19.5 32.1569 19.5 30.5Z" fill="#F9F9FA" stroke="#C5C6CA"/>
</svg>
