<svg width="62" height="62" viewBox="0 0 62 62" fill="none" xmlns="http://www.w3.org/2000/svg">
<path d="M32.6712 37.4682C28.9372 39.0938 25.8273 41.3913 22.5 44.763V17.237C25.8273 20.6087 28.9372 22.9062 32.6712 24.5318C36.6228 26.2521 41.2424 27.2059 47.5 27.9176V34.0824C41.2424 34.7941 36.6228 35.7479 32.6712 37.4682Z" fill="#F9F9FA" stroke="#C5C6CA"/>
<path d="M32.5 30.5C32.5 36.1084 31.501 41.162 29.9061 44.7947C29.1084 46.6118 28.1714 48.051 27.1563 49.0289C26.1436 50.0046 25.0778 50.5 24 50.5C22.9222 50.5 21.8564 50.0046 20.8437 49.0289C19.8286 48.051 18.8916 46.6118 18.0939 44.7947C16.499 41.162 15.5 36.1084 15.5 30.5C15.5 24.8916 16.499 19.838 18.0939 16.2053C18.8916 14.3882 19.8286 12.949 20.8437 11.9711C21.8564 10.9954 22.9222 10.5 24 10.5C25.0778 10.5 26.1436 10.9954 27.1563 11.9711C28.1714 12.949 29.1084 14.3882 29.9061 16.2053C31.501 19.838 32.5 24.8916 32.5 30.5Z" fill="#F9F9FA" stroke="#C5C6CA"/>
</svg>
