<svg width="62" height="62" viewBox="0 0 62 62" fill="none" xmlns="http://www.w3.org/2000/svg">
<rect x="20.5" y="10.5" width="22" height="22" rx="11" fill="#F9F9FA" stroke="#C5C6CA"/>
<mask id="path-2-outside-1_1246_1514" maskUnits="userSpaceOnUse" x="12" y="20" width="39" height="39" fill="black">
<rect fill="white" x="12" y="20" width="39" height="39"/>
<path d="M50 39.5C50 49.7173 41.7173 58 31.5 58C21.2827 58 13 49.7173 13 39.5C13 29.2827 21.2827 21 31.5 21C41.7173 21 50 29.2827 50 39.5ZM15.8527 39.5C15.8527 48.1418 22.8582 55.1473 31.5 55.1473C40.1418 55.1473 47.1473 48.1418 47.1473 39.5C47.1473 30.8582 40.1418 23.8527 31.5 23.8527C22.8582 23.8527 15.8527 30.8582 15.8527 39.5Z"/>
</mask>
<path d="M50 39.5C50 49.7173 41.7173 58 31.5 58C21.2827 58 13 49.7173 13 39.5C13 29.2827 21.2827 21 31.5 21C41.7173 21 50 29.2827 50 39.5ZM15.8527 39.5C15.8527 48.1418 22.8582 55.1473 31.5 55.1473C40.1418 55.1473 47.1473 48.1418 47.1473 39.5C47.1473 30.8582 40.1418 23.8527 31.5 23.8527C22.8582 23.8527 15.8527 30.8582 15.8527 39.5Z" fill="#F9F9FA"/>
<path d="M50 39.5C50 49.7173 41.7173 58 31.5 58C21.2827 58 13 49.7173 13 39.5C13 29.2827 21.2827 21 31.5 21C41.7173 21 50 29.2827 50 39.5ZM15.8527 39.5C15.8527 48.1418 22.8582 55.1473 31.5 55.1473C40.1418 55.1473 47.1473 48.1418 47.1473 39.5C47.1473 30.8582 40.1418 23.8527 31.5 23.8527C22.8582 23.8527 15.8527 30.8582 15.8527 39.5Z" stroke="#C5C6CA" stroke-width="2" mask="url(#path-2-outside-1_1246_1514)"/>
</svg>
