<svg width="62" height="62" viewBox="0 0 62 62" fill="none" xmlns="http://www.w3.org/2000/svg">
<mask id="path-1-inside-1_1246_3464" fill="white">
<path fill-rule="evenodd" clip-rule="evenodd" d="M22.2 15C22.2 12.2386 24.4385 10 27.2 10H39.0001V16.3H29.5001C28.9478 16.3 28.5001 16.7477 28.5001 17.3V44.7C28.5001 45.2522 28.9478 45.7 29.5001 45.7H39.0001V52H27.2C24.4385 52 22.2 49.7614 22.2 47V15Z"/>
</mask>
<path fill-rule="evenodd" clip-rule="evenodd" d="M22.2 15C22.2 12.2386 24.4385 10 27.2 10H39.0001V16.3H29.5001C28.9478 16.3 28.5001 16.7477 28.5001 17.3V44.7C28.5001 45.2522 28.9478 45.7 29.5001 45.7H39.0001V52H27.2C24.4385 52 22.2 49.7614 22.2 47V15Z" fill="#F9F9FA"/>
<path d="M39.0001 10H40.0001V9H39.0001V10ZM39.0001 16.3V17.3H40.0001V16.3H39.0001ZM39.0001 45.7H40.0001V44.7H39.0001V45.7ZM39.0001 52V53H40.0001V52H39.0001ZM27.2 9C23.8862 9 21.2 11.6863 21.2 15H23.2C23.2 12.7909 24.9908 11 27.2 11V9ZM39.0001 9H27.2V11H39.0001V9ZM40.0001 16.3V10H38.0001V16.3H40.0001ZM29.5001 17.3H39.0001V15.3H29.5001V17.3ZM29.5001 17.3V17.3V15.3C28.3956 15.3 27.5001 16.1954 27.5001 17.3H29.5001ZM29.5001 44.7V17.3H27.5001V44.7H29.5001ZM29.5001 44.7L29.5001 44.7H27.5001C27.5001 45.8045 28.3955 46.7 29.5001 46.7V44.7ZM39.0001 44.7H29.5001V46.7H39.0001V44.7ZM40.0001 52V45.7H38.0001V52H40.0001ZM27.2 53H39.0001V51H27.2V53ZM21.2 47C21.2 50.3137 23.8862 53 27.2 53V51C24.9908 51 23.2 49.2091 23.2 47H21.2ZM21.2 15V47H23.2V15H21.2Z" fill="#C5C6CA" mask="url(#path-1-inside-1_1246_3464)"/>
</svg>
