<svg width="23" height="23" viewBox="0 0 23 23" fill="none" xmlns="http://www.w3.org/2000/svg">
<path d="M20.5755 18.2083V4.79163C20.5755 2.87496 19.6172 1.91663 17.7005 1.91663H13.8672C11.9505 1.91663 10.9922 2.87496 10.9922 4.79163V18.2083C10.9922 20.125 11.9505 21.0833 13.8672 21.0833H17.7005C19.6172 21.0833 20.5755 20.125 20.5755 18.2083Z" stroke="white" stroke-linecap="round"/>
<path d="M10.9922 5.75H15.7839" stroke="white" stroke-linecap="round"/>
<path d="M10.9922 17.25H14.8255" stroke="white" stroke-linecap="round"/>
<path d="M10.9922 13.3688L15.7839 13.4167" stroke="white" stroke-linecap="round"/>
<path d="M10.9922 9.58337H13.8672" stroke="white" stroke-linecap="round"/>
<path d="M5.26147 1.91663C3.69939 1.91663 2.4248 3.19121 2.4248 4.74371V17.1637C2.4248 17.595 2.60689 18.2466 2.8273 18.6204L3.61314 19.9237C4.51397 21.4283 5.99939 21.4283 6.90022 19.9237L7.68606 18.6204C7.90647 18.2466 8.08855 17.595 8.08855 17.1637V4.74371C8.08855 3.19121 6.81397 1.91663 5.26147 1.91663Z" stroke="white" stroke-linecap="round"/>
<path d="M8.08855 6.70837H2.4248" stroke="white" stroke-linecap="round"/>
</svg>
