<svg width="23" height="23" viewBox="0 0 23 23" fill="none" xmlns="http://www.w3.org/2000/svg">
<path d="M11.3748 0.791687C5.40567 0.791687 0.541504 5.65585 0.541504 11.625C0.541504 17.5942 5.40567 22.4583 11.3748 22.4583C17.344 22.4583 22.2082 17.5942 22.2082 11.625C22.2082 5.65585 17.344 0.791687 11.3748 0.791687ZM16.5532 9.13335L10.4107 15.2759C10.259 15.4275 10.0532 15.5142 9.8365 15.5142C9.61983 15.5142 9.414 15.4275 9.26233 15.2759L6.1965 12.21C5.88234 11.8959 5.88234 11.3759 6.1965 11.0617C6.51067 10.7475 7.03067 10.7475 7.34483 11.0617L9.8365 13.5534L15.4048 7.98502C15.719 7.67085 16.239 7.67085 16.5532 7.98502C16.8673 8.29919 16.8673 8.80835 16.5532 9.13335Z" fill="#0CB827"/>
</svg>
