<svg width="21" height="16" viewBox="0 0 21 16" fill="none" xmlns="http://www.w3.org/2000/svg">
<path fill-rule="evenodd" clip-rule="evenodd" d="M6.59732 0.0808711C5.55451 0.260773 4.63879 0.60554 3.76992 1.14533C2.48739 1.94218 1.46764 3.07834 0.802312 4.45171C0.274609 5.54101 0.0438721 6.49949 0.00427391 7.76677C-0.065895 10.0126 0.729353 12.0632 2.28714 13.6534C3.5142 14.9059 5.00765 15.671 6.74094 15.9351C7.14591 15.9968 7.85375 16.0034 13.6229 15.9989C20.5847 15.9934 20.2761 16.0035 20.5853 15.7707C20.7444 15.6508 20.8844 15.4516 20.9527 15.2477C20.9828 15.1578 21.0002 14.7948 21 14.2634C20.9996 13.4657 20.9945 13.4104 20.9026 13.212C20.7218 12.8216 20.3848 12.6065 19.954 12.6065C19.3963 12.6065 18.9952 13.0025 18.9237 13.6237L18.8964 13.8612H17.3052H15.7141L15.6947 10.5208C15.6766 7.41961 15.6694 7.14735 15.5936 6.71961C15.289 5.00009 14.6101 3.6335 13.4557 2.41595C12.2392 1.13285 10.7344 0.346682 8.95192 0.062944C8.38018 -0.028075 7.17549 -0.0189022 6.59732 0.0808711ZM8.48864 2.59749C10.0928 2.80939 11.4829 3.71501 12.3545 5.11607C13.3232 6.67315 13.4296 8.68709 12.6318 10.3637C11.4783 12.7879 8.76139 13.9886 6.24582 13.186C4.66751 12.6823 3.34325 11.377 2.80894 9.79825C2.64808 9.32293 2.58608 9.02888 2.5352 8.49978C2.38046 6.89063 2.93832 5.31558 4.07107 4.16337C5.25008 2.96416 6.88288 2.38542 8.48864 2.59749ZM14.8042 2.96458C14.8042 2.98418 14.888 3.13028 14.9905 3.2892C15.4829 4.05287 15.9412 5.18079 16.1439 6.12754L16.2588 6.66461L16.5914 6.6502C16.8771 6.63784 16.9444 6.61992 17.0688 6.52299C17.3426 6.30979 17.3483 6.27415 17.3483 4.79489C17.3483 3.34457 17.3468 3.33393 17.1023 3.124C17.0331 3.06452 16.9078 2.99641 16.8239 2.97262C16.641 2.92077 14.8042 2.91344 14.8042 2.96458ZM7.54111 3.79514C6.04118 3.9079 4.74502 4.83057 4.09434 6.24868C3.84346 6.79538 3.76266 7.14366 3.73718 7.78771C3.7119 8.42618 3.75761 8.81652 3.91293 9.28887C4.13784 9.97271 4.43066 10.4542 4.94507 10.9856C6.14163 12.222 8.02241 12.5549 9.58565 11.8071C10.4183 11.4089 11.072 10.761 11.5084 9.90146C12.2516 8.43783 12.0685 6.66687 11.0384 5.35503C10.5248 4.70089 9.70707 4.14908 8.93628 3.93638C8.65725 3.8594 7.93947 3.75837 7.78732 3.77466C7.75347 3.77831 7.64267 3.78752 7.54111 3.79514Z" fill="#DCDCDE"/>
</svg>
