<svg width="43" height="43" fill="none" xmlns="http://www.w3.org/2000/svg"><rect width="43" height="43" rx="21.5" fill="#313440"/><path d="M17.188 13.834h8.625c.594 0 1.12.019 1.59.086 2.52.278 3.201 1.466 3.201 4.705v5.75c0 3.24-.68 4.428-3.2 4.706-.47.067-.997.086-1.591.086h-8.625c-.595 0-1.122-.02-1.591-.086-2.52-.278-3.201-1.467-3.201-4.706v-5.75c0-3.239.68-4.427 3.2-4.705.47-.067.997-.086 1.591-.086zm5.75 5.75h3.354m-9.584 5.27h9.584m-6.618-5.271h.009m-2.884 0h.009" stroke="#fff" stroke-linecap="round" stroke-linejoin="round"/></svg>