<svg width="43" height="43" fill="none" xmlns="http://www.w3.org/2000/svg"><rect width="43" height="43" rx="21.5" fill="#313440"/><path d="M21.5 23.416h.958a1.922 1.922 0 001.917-1.916v-9.584H15.75a3.83 3.83 0 00-3.345 1.965" stroke="#fff" stroke-linecap="round" stroke-linejoin="round"/><path d="M11.917 26.291a2.871 2.871 0 002.875 2.875h.958c0-1.054.863-1.916 1.917-1.916s1.916.862 1.916 1.916h3.834c0-1.054.862-1.916 1.916-1.916 1.055 0 1.917.862 1.917 1.916h.958a2.871 2.871 0 002.875-2.875v-2.875h-2.875a.961.961 0 01-.958-.958v-2.875a.96.96 0 01.958-.958h1.237l-1.64-2.866a1.932 1.932 0 00-1.667-.968h-1.763V21.5a1.922 1.922 0 01-1.917 1.916H21.5" stroke="#fff" stroke-linecap="round" stroke-linejoin="round"/><path d="M17.667 31.083a1.917 1.917 0 100-3.833 1.917 1.917 0 000 3.833zm7.666 0a1.917 1.917 0 100-3.833 1.917 1.917 0 000 3.833zm5.75-9.583v1.917h-2.875a.961.961 0 01-.958-.959v-2.875a.96.96 0 01.958-.958h1.237l1.638 2.875zm-19.166-3.834h5.75m-5.75 2.875h3.833m-3.833 2.875h1.916" stroke="#fff" stroke-linecap="round" stroke-linejoin="round"/></svg>