<svg width="43" height="43" fill="none" xmlns="http://www.w3.org/2000/svg"><rect width="43" height="43" rx="21.5" fill="#313440"/><path d="M31.055 27.566c0 .345-.077.7-.24 1.045a3.96 3.96 0 01-.652.977c-.47.518-.987.891-1.571 1.131a4.812 4.812 0 01-1.87.364c-.977 0-2.021-.23-3.123-.7a16.834 16.834 0 01-3.297-1.897 27.553 27.553 0 01-3.143-2.683 27.23 27.23 0 01-2.674-3.134c-.786-1.093-1.418-2.185-1.878-3.268-.46-1.092-.69-2.137-.69-3.134 0-.651.115-1.274.345-1.85a4.412 4.412 0 011.102-1.6c.613-.603 1.284-.9 1.993-.9.268 0 .537.057.776.172.25.115.47.287.642.537L19 15.759c.172.24.297.46.383.671.086.201.134.403.134.585 0 .23-.067.46-.201.68a3.26 3.26 0 01-.537.68l-.728.758a.513.513 0 00-.153.383c0 .077.01.144.028.22.03.077.058.135.077.192.173.316.47.729.891 1.227.432.498.892 1.006 1.39 1.514.517.508 1.016.977 1.524 1.409.498.421.91.709 1.236.881.048.02.105.048.172.077a.663.663 0 00.24.038.527.527 0 00.393-.163l.728-.718c.24-.24.47-.422.69-.537.22-.134.441-.201.68-.201.183 0 .374.038.585.124.211.087.431.211.671.374l3.172 2.252c.25.173.422.374.527.614.096.24.154.479.154.747z" stroke="#fff" stroke-miterlimit="10"/><path d="M27.73 18.625c0-.575-.451-1.457-1.122-2.176-.613-.661-1.428-1.179-2.233-1.179m6.708 3.355c0-3.709-3-6.709-6.708-6.709" stroke="#fff" stroke-linecap="round" stroke-linejoin="round"/></svg>