<svg width="32" height="33" fill="none" xmlns="http://www.w3.org/2000/svg"><rect y=".5" width="32" height="32" rx="16" fill="#F85B18"/><path d="M22.647 20.72c0 .24-.054.487-.167.727a2.75 2.75 0 01-.453.68c-.327.36-.687.62-1.094.787-.4.166-.833.253-1.3.253-.68 0-1.406-.16-2.173-.487a11.712 11.712 0 01-2.293-1.32 19.158 19.158 0 01-2.187-1.866 18.933 18.933 0 01-1.86-2.18c-.547-.76-.987-1.52-1.307-2.274-.32-.76-.48-1.486-.48-2.18 0-.453.08-.886.24-1.287.16-.406.414-.78.767-1.113.427-.42.893-.627 1.387-.627.186 0 .373.04.54.12.173.08.326.2.446.374l1.547 2.18c.12.167.207.32.267.466.06.14.093.28.093.407 0 .16-.047.32-.14.473a2.27 2.27 0 01-.373.474l-.507.527a.357.357 0 00-.107.266c0 .054.007.1.02.154.02.053.04.093.054.133.12.22.326.507.62.853.3.347.62.7.966 1.053.36.354.707.68 1.06.98.347.294.634.494.86.614.034.013.074.033.12.053a.46.46 0 00.167.027c.113 0 .2-.04.273-.113l.507-.5c.167-.167.327-.294.48-.374a.887.887 0 01.473-.14c.127 0 .26.027.407.087.147.06.3.146.467.26l2.206 1.566c.174.12.294.26.367.427.067.167.107.334.107.52z" fill="#fff"/></svg>