<svg width="62" height="62" fill="none" xmlns="http://www.w3.org/2000/svg"><path d="M18.5 21a3.5 3.5 0 013.5-3.5h29a.5.5 0 01.5.5v6a.5.5 0 01-.5.5H22a3.5 3.5 0 01-3.5-3.5z" fill="#F9F9FA" stroke="#C5C6CA"/><mask id="path-2-inside-1_1246_1319" fill="#fff"><path fill-rule="evenodd" clip-rule="evenodd" d="M32.706 9.078a3 3 0 00-3-3H14a3 3 0 00-3 3v43.844a3 3 0 003 3h15.706a3 3 0 003-3V30.784a3 3 0 00-3-3h-7.853a6.833 6.833 0 010-13.666h7.853a3 3 0 003-3v-2.04z"/></mask><path fill-rule="evenodd" clip-rule="evenodd" d="M32.706 9.078a3 3 0 00-3-3H14a3 3 0 00-3 3v43.844a3 3 0 003 3h15.706a3 3 0 003-3V30.784a3 3 0 00-3-3h-7.853a6.833 6.833 0 010-13.666h7.853a3 3 0 003-3v-2.04z" fill="#F9F9FA"/><path d="M14 7.078h15.706v-2H14v2zm-2 45.844V9.078h-2v43.844h2zm17.706 2H14v2h15.706v-2zm2-24.138v22.138h2V30.784h-2zm-2-4h-7.853v2h7.853v-2zm-7.853 0a5.833 5.833 0 01-5.833-5.833h-2a7.833 7.833 0 007.833 7.833v-2zm-5.833-5.833a5.833 5.833 0 015.833-5.833v-2a7.833 7.833 0 00-7.833 7.833h2zm5.833-5.833h7.853v-2h-7.853v2zm9.853-6.04v2.04h2v-2.04h-2zm-2 6.04a4 4 0 004-4h-2a2 2 0 01-2 2v2zm4 15.666a4 4 0 00-4-4v2a2 2 0 012 2h2zm-4 26.138a4 4 0 004-4h-2a2 2 0 01-2 2v2zm-19.706-4a4 4 0 004 4v-2a2 2 0 01-2-2h-2zM29.706 7.078a2 2 0 012 2h2a4 4 0 00-4-4v2zM14 5.078a4 4 0 00-4 4h2a2 2 0 012-2v-2z" fill="#C5C6CA" mask="url(#path-2-inside-1_1246_1319)"/><path d="M22.5 43.5a1 1 0 01-1-1v-4.8c0-.11.09-.2.2-.2h1.6c.11 0 .2.09.2.2v4.8a1 1 0 01-1 1z" stroke="#C5C6CA"/></svg>