<svg width="20" height="20" fill="none" xmlns="http://www.w3.org/2000/svg"><path d="M13.542 18.75a1.458 1.458 0 100-2.917 1.458 1.458 0 000 2.917zm-6.667 0a1.458 1.458 0 100-2.917 1.458 1.458 0 000 2.917zM4.033 3.283l-.166 2.042a.66.66 0 00.666.717h12.759c.35 0 .641-.267.666-.617.109-1.475-1.016-2.675-2.491-2.675H5.225a2.272 2.272 0 00-.508-1.008c-.417-.442-1-.7-1.6-.7h-1.45a.63.63 0 00-.625.625.63.63 0 00.625.625h1.45c.258 0 .5.108.675.291a.939.939 0 01.241.7zm13.059 4.009H4.308a.67.67 0 00-.666.608l-.3 3.625a2.435 2.435 0 002.425 2.642h9.266c1.25 0 2.35-1.025 2.442-2.275L17.75 8a.652.652 0 00-.658-.708z" fill="#DADBDE"/></svg>