<svg width="21" height="16" fill="none" xmlns="http://www.w3.org/2000/svg"><path fill-rule="evenodd" clip-rule="evenodd" d="M6.597.08A7.716 7.716 0 003.77 1.146 7.95 7.95 0 00.802 4.452C.275 5.54.044 6.499.004 7.767c-.07 2.246.725 4.296 2.283 5.886a7.725 7.725 0 004.454 2.282c.405.062 1.113.068 6.882.064 6.962-.006 6.653.004 6.962-.228.16-.12.3-.32.368-.523.03-.09.047-.453.047-.985 0-.797-.006-.853-.097-1.051a.998.998 0 00-.949-.605c-.558 0-.959.396-1.03 1.017l-.028.237h-3.182l-.02-3.34c-.017-3.101-.025-3.374-.1-3.801-.305-1.72-.984-3.086-2.138-4.304C12.239 1.133 10.734.346 8.952.063 8.38-.028 7.175-.02 6.597.08zM8.49 2.598c1.604.212 2.994 1.118 3.865 2.52.97 1.556 1.076 3.57.278 5.247-1.154 2.424-3.87 3.625-6.386 2.822-1.578-.504-2.903-1.809-3.437-3.388A4.966 4.966 0 012.535 8.5a5.42 5.42 0 011.536-4.337c1.18-1.199 2.812-1.778 4.418-1.566zm6.315.368c0 .02.084.165.187.324.492.764.95 1.892 1.153 2.839l.115.537.332-.015c.286-.012.353-.03.478-.127.274-.213.28-.249.28-1.728 0-1.45-.002-1.461-.247-1.671a.88.88 0 00-.278-.151c-.183-.052-2.02-.06-2.02-.008zm-7.263.83c-1.5.113-2.796 1.036-3.447 2.454-.25.546-.331.895-.357 1.539-.025.638.02 1.029.176 1.5.225.685.518 1.166 1.032 1.698a4.047 4.047 0 004.64.821c.833-.398 1.487-1.046 1.923-1.906a4.247 4.247 0 00-.47-4.546c-.513-.654-1.33-1.206-2.102-1.419-.279-.077-.997-.178-1.149-.161-.034.003-.144.013-.246.02z" fill="#DCDCDE"/></svg>