<svg width="32" height="33" fill="none" xmlns="http://www.w3.org/2000/svg"><rect y=".5" width="32" height="32" rx="16" fill="#F85B18"/><g clip-path="url(#clip0_63_3546)"><path d="M21.747 14.133c-.7-3.08-3.387-4.466-5.747-4.466h-.007c-2.353 0-5.046 1.38-5.746 4.46-.78 3.44 1.326 6.353 3.233 8.186a3.624 3.624 0 002.52 1.02c.907 0 1.813-.34 2.513-1.02 1.907-1.833 4.014-4.74 3.234-8.18zM16 17.473a2.1 2.1 0 110-4.2 2.1 2.1 0 010 4.2z" fill="#fff"/></g><defs><clipPath id="clip0_63_3546"><path fill="#fff" transform="translate(8 8.5)" d="M0 0h16v16H0z"/></clipPath></defs></svg>