<svg width="62" height="62" fill="none" xmlns="http://www.w3.org/2000/svg"><rect x="20.5" y="10.5" width="22" height="22" rx="11" fill="#F9F9FA" stroke="#C5C6CA"/><mask id="path-2-outside-1_1246_1514" maskUnits="userSpaceOnUse" x="12" y="20" width="39" height="39" fill="#000"><path fill="#fff" d="M12 20h39v39H12z"/><path d="M50 39.5C50 49.717 41.717 58 31.5 58S13 49.717 13 39.5 21.283 21 31.5 21 50 29.283 50 39.5zm-34.147 0c0 8.642 7.005 15.647 15.647 15.647S47.147 48.142 47.147 39.5 40.142 23.853 31.5 23.853 15.853 30.858 15.853 39.5z"/></mask><path d="M50 39.5C50 49.717 41.717 58 31.5 58S13 49.717 13 39.5 21.283 21 31.5 21 50 29.283 50 39.5zm-34.147 0c0 8.642 7.005 15.647 15.647 15.647S47.147 48.142 47.147 39.5 40.142 23.853 31.5 23.853 15.853 30.858 15.853 39.5z" fill="#F9F9FA"/><path d="M50 39.5C50 49.717 41.717 58 31.5 58S13 49.717 13 39.5 21.283 21 31.5 21 50 29.283 50 39.5zm-34.147 0c0 8.642 7.005 15.647 15.647 15.647S47.147 48.142 47.147 39.5 40.142 23.853 31.5 23.853 15.853 30.858 15.853 39.5z" stroke="#C5C6CA" stroke-width="2" mask="url(#path-2-outside-1_1246_1514)"/></svg>