<svg width="62" height="62" fill="none" xmlns="http://www.w3.org/2000/svg"><mask id="path-1-inside-1_1246_818" fill="#fff"><path fill-rule="evenodd" clip-rule="evenodd" d="M38.724 22.98H23.217a7.574 7.574 0 100 15.149H39.17C36.473 43.957 30.574 48 23.73 48c-9.388 0-17-7.611-17-17s7.612-17 17-17c6.489 0 12.128 3.635 14.993 8.98z"/></mask><path fill-rule="evenodd" clip-rule="evenodd" d="M38.724 22.98H23.217a7.574 7.574 0 100 15.149H39.17C36.473 43.957 30.574 48 23.73 48c-9.388 0-17-7.611-17-17s7.612-17 17-17c6.489 0 12.128 3.635 14.993 8.98z" fill="#F9F9FA"/><path d="M38.724 22.98v1h1.671l-.79-1.473-.88.473zm.445 15.149l.908.42.656-1.42H39.17v1zm-15.952-14.15h15.507v-2H23.217v2zm-6.574 6.575a6.575 6.575 0 016.574-6.574v-2a8.575 8.575 0 00-8.574 8.574h2zm6.574 6.575a6.575 6.575 0 01-6.574-6.575h-2a8.575 8.575 0 008.574 8.575v-2zm15.952 0H23.217v2H39.17v-2zm-.908.58C35.723 43.196 30.171 47 23.731 47v2c7.247 0 13.492-4.283 16.346-10.451l-1.816-.84zM23.731 47c-8.836 0-16-7.163-16-16h-2c0 9.941 8.06 18 18 18v-2zm-16-16c0-8.837 7.164-16 16-16v-2c-9.94 0-18 8.059-18 18h2zm16-16c6.106 0 11.414 3.42 14.112 8.452l1.763-.945C36.574 16.851 30.603 13 23.73 13v2z" fill="#C5C6CA" mask="url(#path-1-inside-1_1246_818)"/><path d="M19.5 30.5a3 3 0 013-3H53a.5.5 0 01.5.5v5a.5.5 0 01-.5.5H22.5a3 3 0 01-3-3z" fill="#F9F9FA" stroke="#C5C6CA"/></svg>