<svg width="62" height="62" fill="none" xmlns="http://www.w3.org/2000/svg"><mask id="path-1-inside-1_1246_3464" fill="#fff"><path fill-rule="evenodd" clip-rule="evenodd" d="M22.2 15a5 5 0 015-5H39v6.3h-9.5a1 1 0 00-1 1v27.4a1 1 0 001 1H39V52H27.2a5 5 0 01-5-5V15z"/></mask><path fill-rule="evenodd" clip-rule="evenodd" d="M22.2 15a5 5 0 015-5H39v6.3h-9.5a1 1 0 00-1 1v27.4a1 1 0 001 1H39V52H27.2a5 5 0 01-5-5V15z" fill="#F9F9FA"/><path d="M39 10h1V9h-1v1zm0 6.3v1h1v-1h-1zm0 29.4h1v-1h-1v1zm0 6.3v1h1v-1h-1zM27.2 9a6 6 0 00-6 6h2a4 4 0 014-4V9zM39 9H27.2v2H39V9zm1 7.3V10h-2v6.3h2zm-10.5 1H39v-2h-9.5v2zm0 0v-2a2 2 0 00-2 2h2zm0 27.4V17.3h-2v27.4h2zm0 0h-2a2 2 0 002 2v-2zm9.5 0h-9.5v2H39v-2zm1 7.3v-6.3h-2V52h2zm-12.8 1H39v-2H27.2v2zm-6-6a6 6 0 006 6v-2a4 4 0 01-4-4h-2zm0-32v32h2V15h-2z" fill="#C5C6CA" mask="url(#path-1-inside-1_1246_3464)"/></svg>