<svg width="62" height="62" fill="none" xmlns="http://www.w3.org/2000/svg"><path d="M32.671 37.468c-3.734 1.626-6.844 3.923-10.171 7.295V17.237c3.327 3.372 6.437 5.67 10.171 7.295 3.952 1.72 8.571 2.674 14.829 3.386v6.164c-6.258.712-10.877 1.666-14.829 3.386z" fill="#F9F9FA" stroke="#C5C6CA"/><path d="M32.5 30.5c0 5.608-.999 10.662-2.594 14.295-.798 1.817-1.735 3.256-2.75 4.234-1.012.976-2.078 1.471-3.156 1.471-1.078 0-2.144-.495-3.156-1.471-1.015-.978-1.952-2.417-2.75-4.234C16.499 41.162 15.5 36.108 15.5 30.5c0-5.608.999-10.662 2.594-14.295.798-1.817 1.735-3.256 2.75-4.234C21.856 10.995 22.922 10.5 24 10.5c1.078 0 2.144.495 3.156 1.471 1.015.978 1.952 2.417 2.75 4.234C31.501 19.838 32.5 24.892 32.5 30.5z" fill="#F9F9FA" stroke="#C5C6CA"/></svg>