<svg width="16" height="17" fill="none" xmlns="http://www.w3.org/2000/svg"><path d="M8.867 5.907l.88 1.76c.12.24.44.48.706.52l1.594.266c1.02.174 1.26.907.526 1.64l-1.24 1.247c-.206.207-.326.613-.26.907l.354 1.54c.28 1.213-.367 1.686-1.44 1.053l-1.494-.887a1.074 1.074 0 00-.986 0l-1.5.88c-1.074.634-1.72.16-1.44-1.053l.353-1.54c.067-.287-.053-.693-.26-.907L3.427 10.1c-.734-.733-.494-1.473.526-1.64l1.594-.267c.266-.046.586-.28.706-.52l.88-1.76c.474-.96 1.26-.96 1.734-.006zM4 7a.504.504 0 01-.5-.5V1.833c0-.273.227-.5.5-.5s.5.227.5.5V6.5c0 .273-.227.5-.5.5zm8 0a.504.504 0 01-.5-.5V1.833c0-.273.227-.5.5-.5s.5.227.5.5V6.5c0 .273-.227.5-.5.5zM8 3.667a.504.504 0 01-.5-.5V1.833c0-.273.227-.5.5-.5s.5.227.5.5v1.334c0 .273-.227.5-.5.5z" fill="#CBCBD1"/></svg>