<svg width="23" height="23" fill="none" xmlns="http://www.w3.org/2000/svg"><path d="M20.576 18.208V4.792c0-1.917-.959-2.875-2.875-2.875h-3.834c-1.917 0-2.875.958-2.875 2.875v13.416c0 1.917.958 2.875 2.875 2.875h3.834c1.916 0 2.875-.958 2.875-2.875zM10.992 5.75h4.792m-4.792 11.5h3.833m-3.833-3.881l4.792.048m-4.792-3.834h2.875M5.261 1.917a2.84 2.84 0 00-2.836 2.827v12.42c0 .431.182 1.083.402 1.456l.786 1.304c.901 1.504 2.386 1.504 3.287 0l.786-1.304c.22-.373.403-1.025.403-1.456V4.744A2.838 2.838 0 005.26 1.917zm2.828 4.791H2.425" stroke="#fff" stroke-linecap="round"/></svg>